<svg id="a497c798-60b5-4066-922b-c9fd3eb1cb93" data-name="Capa 1" xmlns="http://www.w3.org/2000/svg" viewBox="0 0 1461.4 795.29"><circle cx="274.2" cy="277.97" r="500.5" fill="#ff584f"/><rect x="2.7" y="0.47" width="580" height="553" fill="#fff"/><path d="M423.43,99.52V337a89.23,89.23,0,0,1-89.19,89.07H304.51V129.21h29.73A88.13,88.13,0,0,1,364,134.68V99.52a440.87,440.87,0,0,0-11.23-99H2.7v572H608.54a581.73,581.73,0,0,0,0-572h-195A500.74,500.74,0,0,1,423.43,99.52ZM245.05,426.1a59.41,59.41,0,0,1-59.45,59.37H155.87a29.71,29.71,0,0,1-29.73-29.68V99.52a29.71,29.71,0,0,1,29.73-29.69H185.6a59.42,59.42,0,0,1,59.45,59.38Z" fill="#ff584f"/><path d="M484.93,628V397.62H597q42.57.35,62.82,16.23T680,459.74q0,19.54-11.52,33.68t-35.25,18v.35q26.52,3.5,39.61,18.32T686,565.84q0,29.65-20.94,45.89T602.19,628Zm57.93-136.11h43.63q32.1,0,32.1-25.13t-32.1-25.13H542.86Zm0,93.88h49.21q16.39,0,24.43-6.63t8-19.2q0-12.21-8-18.67t-24.43-6.45H542.86Z" fill="#20143a"/><path d="M816.82,517.33q0-12.23-6.8-19.37T791.7,490.8q-11.52,0-19.72,5.76T760.64,517l-50.26-11.87A62.35,62.35,0,0,1,736.21,465q20.92-15,59-15,25.47,0,43.45,7.5t27.57,22.34q9.59,14.83,9.59,36.47v63.87q0,13.61,12.22,13.61a30.25,30.25,0,0,0,10.12-1.4l-3.49,33.85q-10.47,4.89-25.48,4.89a62.35,62.35,0,0,1-24.08-4.36,35.6,35.6,0,0,1-16.4-13.27q-5.94-8.9-5.93-22.51v-2.09l6.63-2.44q0,15-8.9,25.13a53,53,0,0,1-23,15A89.53,89.53,0,0,1,768,631.45q-17.79,0-31.06-5.59t-20.41-16.22q-7.15-10.65-7.16-26.35,0-18.85,11.34-31.24t35.78-17.27l66-13.62-.35,31.41-33.51,7q-10.47,2.1-15.53,6.11t-5.06,12q0,7.68,5.59,11.52a22.81,22.81,0,0,0,13.26,3.84,36.55,36.55,0,0,0,11.34-1.75,26.8,26.8,0,0,0,9.6-5.41,25.83,25.83,0,0,0,6.63-9.24,32.92,32.92,0,0,0,2.44-13.27Z" fill="#20143a"/><path d="M921.52,628V453.46h52.35l2.44,37.69q6.63-19.54,19.72-30.36T1029.36,450a53,53,0,0,1,11.35,1,24.11,24.11,0,0,1,7.5,2.79l-5.93,48.86a42.81,42.81,0,0,0-8.9-2.27,84.13,84.13,0,0,0-13.09-.87,43.18,43.18,0,0,0-19.55,4.53,35.08,35.08,0,0,0-14.48,13.44q-5.41,8.89-5.41,22.51v88Z" fill="#20143a"/><path d="M1177,589.22q30.36,0,46.59,12.74t16.23,36.47q0,21.63-11.87,35.94t-33.33,21.47q-21.46,7.14-50.78,7.15-47.46,0-68.4-11.86T1054.49,659q0-14.65,11.87-23.73t39.43-9.77l-1.39,5.58q-21.3-2.8-31.76-12.56T1062.17,592q0-16.75,13.26-27.22t35.25-11.52l21.64,10.12h-5.59q-13.61.71-19.19,4.54t-5.59,9.42a9.72,9.72,0,0,0,4.89,8.9q4.89,3,14.66,3ZM1146.28,450q26.52,0,45.37,7T1220.44,477q9.94,13.08,10,32.28,0,18.84-10,32.11t-28.79,20.06q-18.86,6.81-45.37,6.81-41.54,0-63-15.36t-21.46-43.62q0-19.2,10-32.28T1100.56,457Q1119.4,450,1146.28,450Zm-2.1,214.63q16.75,0,27.75-2.27t16.58-6.28c3.71-2.68,5.58-5.76,5.58-9.25a9.79,9.79,0,0,0-3.84-8.2q-3.84-3-14-3h-62.47q-6.63,0-10.64,3.49a11.06,11.06,0,0,0-4,8.72q0,8,11.87,12.39T1144.18,664.6Zm2.1-180.78q-11.52,0-18.67,6.63t-7.16,18.85q0,11.87,7.16,18.49t18.67,6.64q11.16,0,18.49-6.64t7.33-18.49q0-12.21-7.33-18.85T1146.28,483.82ZM1237,406.69l4.88,39.79a17.79,17.79,0,0,0-4.18-.87c-1.4-.12-2.8-.18-4.19-.18q-15.36,0-22.86,7.5a25.34,25.34,0,0,0-7.51,18.68l-20.94-7.68a74.42,74.42,0,0,1,5.24-27.57,49.45,49.45,0,0,1,16.23-21.64q11-8.39,27.74-8.38h2.62A12.39,12.39,0,0,1,1237,406.69Z" fill="#20143a"/><path d="M1293.21,433.22q-18.15,0-26.35-6.81T1258.65,405q0-15,8.21-21.82t26.35-6.8q17.79,0,26.17,6.8t8.38,21.82q0,14.66-8.38,21.46T1293.21,433.22Zm29.66,20.24V628h-59.33V453.46Z" fill="#20143a"/></svg>